<?xml version="1.0" encoding="UTF-8"?>
<svg id="_-_LOGO::The_one_-_smalle_then_with" data-name=" - LOGO::The one - smalle then with" xmlns="http://www.w3.org/2000/svg" viewBox="0 0 1636.07 1046.31">
  <path d="M391.01,152.98c11.08,12.59,21.2,26.11,30.36,40.13,9.76,14.94,18.55,30.6,26.35,46.64,8.19,16.84,15.38,34.23,21.56,51.91,6.39,18.28,11.74,36.99,16.01,55.88,4.36,19.28,7.63,38.85,9.73,58.5,1.06,9.92,1.83,19.84,2.3,29.8.23,4.99.39,9.97.47,14.96.02,1.35.04,2.7.06,4.05.89,66.11,1.79,132.23,2.68,198.34,1.57,116.56,3.15,233.12,4.72,349.68.17,12.53.34,25.05.51,37.58.02,1.24.03,2.48.05,3.72,0,.3,0,.6.01.91v.25h0c-.26-.1-.52-.2-.78-.29-4.98-1.87-9.96-3.73-14.94-5.6-16.8-6.3-33.61-12.6-50.41-18.89-4.61-1.73-9.23-3.46-13.84-5.19-.14-.05-.28-.11-.43-.16l-.08-.03h0v-.13c-.04-2.25-.08-4.5-.12-6.74-.24-13.43-.47-26.86-.71-40.3-3.07-175.21-6.14-350.42-9.22-525.64-.07-4.17-.15-8.34-.22-12.51,0-.22,0-.45-.01-.67-.02-1.25-.05-2.49-.09-3.74-.08-2.49-.18-4.98-.32-7.47-.55-9.91-1.59-19.8-3.1-29.61-2.95-19.18-7.7-38.22-14.15-56.53-3.11-8.83-6.64-17.54-10.57-26.03-3.79-8.19-7.99-16.22-12.58-23.98-4.39-7.41-9.17-14.62-14.34-21.5-2.49-3.31-5.07-6.54-7.75-9.7-.66-.77-1.32-1.54-1.99-2.31-.33-.38-.67-.76-1-1.13-.08-.09-.17-.19-.25-.28-.01,0-.05-.05-.06-.07,0,0-.02-.03-.03-.04-.02-.03-.04-.05-.06-.08-.08-.11-.17-.22-.25-.33-.68-.88-1.36-1.75-2.05-2.61-10.88-13.6-24.62-26.66-40.61-34.52-7.88-3.87-16.25-6.46-25.04-7.24-2.22-.2-4.44-.28-6.67-.25-1.13.02-2.26.06-3.39.14-.14,0-.28.02-.43.03-.07,0-.15,0-.22.02-.06,0-.12,0-.18,0-.12,0-.24.02-.36.03-.96.07-1.92.17-2.88.29-3.98.49-7.89,1.37-11.72,2.56-2.29.72-4.54,1.54-6.76,2.47-3.37,1.41-6.62,3.03-9.79,4.84-3.53,2.02-6.9,4.23-10.18,6.63-3.67,2.68-7.16,5.54-10.54,8.57-3.79,3.39-7.38,6.95-10.85,10.67-3.89,4.16-7.58,8.46-11.13,12.91-3.97,4.97-7.74,10.07-11.36,15.29-1.96,2.83-3.88,5.69-5.76,8.59-.98,1.5-1.94,3.02-2.9,4.53-.49.77-.97,1.55-1.45,2.33-.24.39-.48.79-.73,1.18-.06.1-.12.2-.18.3l-.09.15-.05.07s-.02.02-.02.04h0c1.2,4.15,2.4,8.28,3.6,12.42,6.99,24.14,13.99,48.29,20.99,72.43,12.07,41.66,24.14,83.32,36.21,124.97.5,1.72,1,3.43,1.49,5.15.1.36.21.72.31,1.08,0,.05.03.09.04.14,0,.02,0,.04.02.06.04.12.07.24.11.35.09.28.17.57.26.85,0,.04.02.08.03.12.02.09.05.19.08.28.08.29.15.58.23.88.43,1.63.85,3.26,1.27,4.9,4.49,17.49,8.66,35.04,12.46,52.69,3.53,16.42,6.73,32.88,9.54,49.44,2.6,15.32,4.85,30.67,6.69,46.1,1.69,14.18,3.03,28.44,3.92,42.69.82,13.04,1.26,26.15,1.23,39.22-.02,11.89-.44,23.83-1.36,35.7-.83,10.74-2.08,21.5-3.86,32.13-1.61,9.59-3.66,19.15-6.27,28.52-1.21,4.36-2.55,8.67-4.02,12.94-1.42,4.12-2.96,8.17-4.66,12.18-3.06,7.24-6.62,14.31-10.79,20.99-2.39,3.83-4.98,7.54-7.8,11.06-2.61,3.27-5.42,6.39-8.43,9.3-5.51,5.32-11.66,9.9-18.49,13.43-13.03,6.72-27.13,8.89-41.57,6.94-7.59-1.02-14.97-3.14-22.03-6.03-1.87-.77-3.72-1.59-5.55-2.46-.93-.44-1.86-.9-2.78-1.37-.93-.47-1.85-.96-2.77-1.46-3.76-2.04-7.39-4.26-10.93-6.65-7.58-5.12-14.68-10.98-21.29-17.28-7.25-6.91-13.98-14.42-20.2-22.25-6.78-8.54-13.02-17.57-18.73-26.85-6.18-10.04-11.8-20.47-16.88-31.1-5.45-11.42-10.32-23.14-14.64-35.03-4.61-12.69-8.6-25.61-12.02-38.67-.44-1.69-.88-3.38-1.3-5.07-.21-.85-.42-1.7-.63-2.55s-.41-1.7-.62-2.55c-.82-3.42-1.6-6.86-2.34-10.3-1.51-6.99-2.86-14-4.06-21.04-2.48-14.52-4.33-29.15-5.59-43.83-1.31-15.32-1.98-30.7-2.04-46.07-.07-16.1.52-32.19,1.71-48.25,1.33-17.96,3.42-35.86,6.2-53.66,2.94-18.81,6.64-37.49,11.03-56.01,2.29-9.67,4.77-19.3,7.43-28.88.68-2.44,1.37-4.88,2.06-7.31.46-1.58.92-3.16,1.38-4.74.72-2.47,1.45-4.94,2.19-7.4,2.86-9.59,5.81-19.15,8.85-28.69,5.68-17.77,11.71-35.47,18.17-52.97,5.86-15.86,12.09-31.65,18.77-47.18,1.57-3.65,3.16-7.28,4.78-10.91.8-1.78,1.6-3.55,2.41-5.32.4-.88.8-1.75,1.21-2.63.2-.44.4-.87.6-1.31.01-.03.02-.05.04-.08,0,0,.01-.03.02-.04h0s0-.03-.01-.05c-1.4-4.84-2.81-9.68-4.21-14.52-7.56-26.1-15.13-52.2-22.7-78.3-7.87-27.17-15.75-54.34-23.62-81.51-1.79-6.19-3.59-12.37-5.38-18.56-.06-.2-.08-.26-.13-.45-.01-.04-.1-.35-.11-.39l-.09-.31.12.4c-.18-.59-.25-.84-.46-1.59-.44-1.59-12.51-44.93-13.73-49.16,22.79,4.79,53.16,11.37,79.36,17.04.01,0,.05,0,.05,0h.01s0,.02,0,.02l.02.05c.03.11.04.13.07.23.17.58.33,1.15.5,1.73l2.08,7.17c2.36,8.15,4.73,16.31,7.09,24.46,4.96,17.12,9.92,34.25,14.89,51.37,4.35,15.01,8.69,30.02,13.04,45.03.93,3.21,1.86,6.41,2.78,9.61.08.28.16.56.24.85l.04.13h0s.03-.06.03-.06c.09-.12.17-.24.26-.36.17-.24.35-.48.52-.71.35-.47.7-.95,1.05-1.42,2.73-3.67,5.52-7.29,8.41-10.84,5.37-6.61,11.03-13.02,17.02-19.08,5.46-5.54,11.21-10.81,17.25-15.71,5.56-4.5,11.37-8.68,17.46-12.44,5.66-3.5,11.53-6.62,17.62-9.29,1.65-.72,3.31-1.41,4.99-2.07,1.53-.6,3.07-1.16,4.63-1.7,3.03-1.05,6.1-1.97,9.21-2.77,5.98-1.53,12.04-2.58,18.19-3.1,1.5-.13,3-.22,4.5-.29.37-.02.75-.03,1.12-.04.83-.03,1.66-.05,2.49-.06,2.77-.03,5.54.04,8.31.22,11.01.7,21.75,3.02,32.15,6.66,10.52,3.68,20.55,8.65,30.01,14.5,9.67,5.98,18.81,12.92,27.33,20.43,8.57,7.54,16.63,15.77,24.13,24.37,1.86,2.13,3.68,4.29,5.47,6.47.44.54.89,1.09,1.33,1.63.22.27.44.55.66.82.02.03.02.07.07.08h0l.11.02-.02.02ZM188.44,771.59c.95-2.95,1.78-5.93,2.5-8.94.83-3.43,1.52-6.88,2.12-10.35.68-3.92,1.22-7.86,1.67-11.82.5-4.44.87-8.88,1.13-13.34.3-4.97.46-9.94.52-14.92.07-5.52,0-11.03-.16-16.55-.19-6.09-.5-12.16-.93-18.23-.47-6.67-1.06-13.32-1.77-19.97-.88-8.24-1.92-16.46-3.1-24.67-1.3-9.03-2.77-18.03-4.38-27.01-1.76-9.84-3.69-19.64-5.77-29.42-2.26-10.67-4.69-21.29-7.26-31.89-1.27-5.26-2.58-10.5-3.93-15.74-.17-.67-.34-1.34-.52-2.01-.09-.34-.17-.67-.26-1.01-.04-.17-.09-.34-.13-.5l-.07-.25s-.02-.09-.03-.13c0-.04-.02-.07-.03-.11,0-.01,0-.03,0-.04-.03-.11-.07-.23-.1-.34l-1.29-4.46c-2.02-6.98-4.05-13.96-6.07-20.94-6.31-21.77-12.62-43.54-18.92-65.31-4.29-14.82-8.59-29.64-12.88-44.46-.81-2.78-1.61-5.56-2.42-8.34,0-.03-.02-.05-.02-.08v-.02h0v.03s-.02.03-.02.04c-.17.44-.34.89-.52,1.33-.35.89-.69,1.78-1.03,2.67-.69,1.8-1.38,3.61-2.06,5.42-5.85,15.47-11.32,31.1-16.49,46.81-3.28,9.97-6.44,19.97-9.49,30-.4,1.3-.79,2.6-1.18,3.9-.32,1.06-.64,2.13-.96,3.2-.6,2.02-1.19,4.05-1.78,6.08-2.26,7.86-4.38,15.74-6.34,23.68-3.64,14.68-6.76,29.48-9.27,44.4-1.8,10.69-3.28,21.4-4.42,32.18-1.04,9.92-1.79,19.85-2.2,29.82-.38,9.16-.48,18.3-.27,27.46.19,8.39.64,16.75,1.39,25.11.55,6.18,1.26,12.33,2.14,18.47.82,5.67,1.78,11.31,2.92,16.93.53,2.64,1.1,5.26,1.7,7.88.29,1.27.6,2.53.91,3.79.3,1.23.61,2.45.93,3.67,1.23,4.69,2.58,9.33,4.08,13.94,2.7,8.3,5.87,16.48,9.6,24.37,1.68,3.55,3.46,7.04,5.38,10.46,1.78,3.18,3.66,6.29,5.67,9.33,1.8,2.73,3.7,5.38,5.71,7.96,1.86,2.39,3.8,4.69,5.85,6.92,1.89,2.05,3.86,4.01,5.93,5.88,1.9,1.71,3.88,3.33,5.95,4.84,1.9,1.38,3.85,2.66,5.9,3.81.48.27.97.54,1.46.79.47.25.95.48,1.43.71.93.45,1.88.86,2.85,1.25,3.61,1.44,7.41,2.4,11.31,2.63,3.72.22,7.37-.25,10.9-1.48,3.77-1.31,7.11-3.39,10.08-6.02,1.67-1.48,3.2-3.11,4.61-4.85,1.57-1.94,2.97-4.01,4.25-6.15,1.43-2.42,2.7-4.94,3.83-7.51,1.28-2.92,2.39-5.89,3.37-8.92v.02Z"/>
  <path d="M1604.58,355.03c-16.78,4.23-33.55,8.47-50.33,12.7-1.21.3-2.41.61-3.61.91-.24.06-.47.12-.71.18-.02,0-.03,0-.05.01h0v-.04c0-.2.02-.4.02-.6.34-9.05.69-18.1,1.03-27.15,1.4-36.96,2.8-73.91,4.2-110.87.61-16.2,1.23-32.4,1.84-48.6.05-1.41.11-2.82.16-4.24,0-.23.02-.47.03-.7.06-1.52.1-3.04.14-4.56.07-2.82.1-5.64.09-8.46-.01-2.54-.07-5.07-.18-7.61-.1-2.27-.25-4.53-.47-6.79-.19-2.01-.43-4.01-.76-6-.28-1.76-.63-3.51-1.06-5.24-.38-1.53-.83-3.03-1.38-4.51-.48-1.31-1.04-2.58-1.7-3.81-.6-1.11-1.26-2.15-2.04-3.14-1.42-1.81-3.1-3.28-5.13-4.39-2.06-1.12-4.3-1.76-6.6-2.07-1.29-.17-2.58-.24-3.88-.24-1.44,0-2.86.09-4.29.25-1.58.17-3.15.41-4.7.71-1.82.34-3.51.72-5.29,1.23-3.48.99-6.82,2.34-10,4.09-6.47,3.56-11.74,8.49-16.02,14.45-2.33,3.25-4.32,6.73-6.02,10.35-1.88,4.01-3.42,8.18-4.69,12.41-1.5,5.02-2.65,10.17-3.52,15.33-.98,5.81-1.64,11.71-2.06,17.58-.21,2.91-.36,5.83-.46,8.75-.03.92-.06,1.85-.09,2.78-.2,5.84-.4,11.69-.6,17.53-1.51,44.21-3.01,88.42-4.52,132.63-.33,9.75-.66,19.5-1,29.24-.02.54-.04,1.09-.06,1.63h0s0,.01-.01.01c-.02,0-.04.01-.06.02-.09.02-.19.05-.28.07-1.01.26-2.03.51-3.04.77-10,2.52-20,5.05-29.99,7.57-7.74,1.95-15.48,3.91-23.22,5.86l-.13.03h0v-.11c0-.14,0-.27.01-.41.05-1.53.09-3.06.14-4.58.23-7.21.45-14.43.68-21.64.82-26.29,1.65-52.58,2.47-78.87,2.04-65.07,4.08-130.15,6.11-195.22.2-6.22.39-12.45.58-18.67.05-1.6.1-3.21.15-4.81.01-.38.02-.76.04-1.13v-.25h0c1.56-.31,3.12-.62,4.68-.94,8.35-1.67,16.69-3.34,25.04-5.01,7.59-1.52,15.19-3.04,22.79-4.56.72-.14,1.43-.29,2.15-.43.07-.01.13-.03.2-.04h.05v.3c-.06,1.88-.13,3.77-.19,5.65-.46,13.65-.93,27.31-1.39,40.96,0,.25-.02.5-.02.74v.24h0s0,0,0,0c0-.03.02-.05.03-.08,1.22-3.33,2.53-6.62,3.94-9.87,2.63-6.07,5.61-12.01,9.03-17.68,3.15-5.22,6.69-10.22,10.67-14.86,3.75-4.37,7.87-8.38,12.41-11.94,5.1-4,10.59-7.34,16.5-10.01,3-1.35,6.05-2.51,9.19-3.49,1.6-.5,3.21-.95,4.84-1.36.82-.21,1.65-.4,2.48-.58.88-.19,1.76-.38,2.65-.54,3.82-.71,7.7-1.1,11.59-1.05,3.61.04,7.2.45,10.71,1.3,6.9,1.67,13.05,4.9,18.37,9.59,2.79,2.46,5.27,5.24,7.45,8.25,2.4,3.3,4.43,6.85,6.16,10.54,1.94,4.13,3.5,8.44,4.77,12.81,1.43,4.94,2.5,10,3.28,15.08.89,5.73,1.42,11.54,1.69,17.33.3,6.37.28,12.79.02,19.16-.31,7.72-.62,15.43-.94,23.15-2.64,65-5.27,130.01-7.91,195.01l.02-.04Z"/>
  <path d="M1365.08,276.3c-51.88,11.94-103.76,23.87-155.64,35.81-.31.07-.62.14-.93.21l-.14.03h0v.21c0,.19,0,.38.01.57,0,.38.02.75.03,1.13.08,2.92.22,5.84.44,8.76.4,5.33,1.06,10.69,2.05,15.95.88,4.64,2.03,9.27,3.54,13.75,1.33,3.92,2.95,7.78,4.95,11.41,1.76,3.18,3.83,6.22,6.28,8.93,2.2,2.44,4.7,4.59,7.51,6.32,5.64,3.46,11.87,4.78,18.41,4.3,1.77-.13,3.51-.39,5.24-.75,1.35-.28,2.67-.63,3.99-1.04,2.37-.73,4.67-1.65,6.9-2.74,4.6-2.25,8.85-5.19,12.64-8.62,3.97-3.59,7.44-7.73,10.34-12.22,3.04-4.71,5.44-9.81,7.15-15.16.72-2.24,1.31-4.5,1.78-6.8.02-.07.03-.15.04-.22,0-.04.02-.07.02-.11h.01s.04,0,.06-.01c.09-.02.19-.04.28-.07.39-.09.77-.18,1.16-.27,3.66-.87,7.32-1.74,10.98-2.6,11.35-2.69,22.7-5.38,34.05-8.07,3.99-.95,7.99-1.89,11.98-2.84l2.35-.56s.05-.01.07-.02h.02c-.02.11-.05.22-.07.32-.38,1.71-.77,3.42-1.18,5.12-.8,3.34-1.67,6.67-2.6,9.98-3.48,12.41-7.89,24.61-13.37,36.29-4.97,10.57-10.85,20.75-17.77,30.19-7.45,10.15-16.1,19.43-26.04,27.22-9.31,7.29-19.57,13.14-30.72,17.16-2.74.99-5.51,1.85-8.32,2.61-.85.23-1.71.45-2.57.66-1.09.27-2.17.52-3.27.76-2.12.47-4.25.89-6.39,1.26-4.06.7-8.12,1.21-12.23,1.47-3.82.25-7.65.28-11.47.06-7.05-.41-13.99-1.7-20.65-4.14-6.38-2.33-12.23-5.62-17.55-9.85-3.66-2.92-6.98-6.2-9.98-9.79-3.23-3.85-6.06-8.01-8.56-12.37-2.75-4.79-5.11-9.82-7.13-14.95-2.26-5.72-4.13-11.61-5.7-17.55-1.75-6.63-3.14-13.38-4.25-20.15-1.24-7.53-2.14-15.15-2.79-22.75-.72-8.42-1.14-16.9-1.32-25.35-.1-4.55-.13-9.1-.11-13.65.01-2.36.04-4.71.08-7.07.04-2.03.09-4.05.16-6.08.51-14.98,1.89-30,4.34-44.8,2.25-13.62,5.42-27.17,9.69-40.31,3.92-12.04,8.79-23.84,14.78-35.02,5.52-10.28,12-20.05,19.58-28.95,9.46-11.1,20.49-20.66,33.17-28,6.16-3.57,12.61-6.55,19.33-8.92,3.39-1.2,6.81-2.23,10.3-3.11,1.76-.44,3.52-.84,5.3-1.21.89-.18,1.78-.35,2.67-.51.88-.16,1.75-.3,2.63-.44,6.54-1.01,13.18-1.43,19.8-.98,5.98.4,11.86,1.52,17.54,3.5,5.47,1.91,10.56,4.56,15.27,7.94,4.9,3.52,9.21,7.69,13.01,12.35,2.95,3.61,5.57,7.48,7.91,11.5,2.56,4.41,4.79,9.02,6.75,13.72,2.16,5.19,4.01,10.54,5.59,15.93,1.76,5.97,3.22,12.04,4.44,18.14,1.35,6.73,2.42,13.53,3.28,20.34.94,7.49,1.63,15,2.12,22.53.53,8.23.83,16.47.95,24.72.13,8.97.04,17.93-.22,26.9h0ZM1211.45,255.91c23.61-5.23,47.23-10.45,70.84-15.68,6.54-1.45,13.08-2.9,19.62-4.34,1.17-.26,2.35-.52,3.52-.78.02,0,.04,0,.06,0h0v-1.73c0-1.24-.02-2.47-.06-3.71-.06-2.36-.18-4.71-.37-7.06-.28-3.52-.69-7.02-1.29-10.5-.54-3.13-1.22-6.2-2.09-9.26-.78-2.73-1.71-5.42-2.81-8.03-1-2.35-2.15-4.64-3.47-6.83-1.73-2.86-3.77-5.54-6.15-7.91-2.14-2.13-4.54-3.96-7.19-5.42-5.13-2.82-10.77-3.96-16.58-3.6-1.35.08-2.68.24-4.01.48-1.38.24-2.74.57-4.09.97-2.79.84-5.46,2-7.99,3.43-2.69,1.52-5.22,3.33-7.57,5.33-2.54,2.17-4.88,4.58-7.03,7.15-3.63,4.34-6.74,9.15-9.37,14.14-2.99,5.67-5.42,11.67-7.38,17.77-1.76,5.51-3.15,11.14-4.22,16.82-1.16,6.2-1.94,12.48-2.39,18.76h.02Z"/>
  <path d="M1092.74,484.22c-20.64,5.21-41.28,10.42-61.92,15.63-.85.22-1.71.43-2.56.65h-.02v-.2c0-.35,0-.7.01-1.05.02-1.55.04-3.11.06-4.66.19-15.02.38-30.05.56-45.07.54-43.45,1.09-86.9,1.63-130.34.11-8.65.22-17.3.32-25.96l.06-4.86c.01-1.07.02-2.14.03-3.22,0-1.82,0-3.64-.04-5.46-.06-3.34-.18-6.68-.41-10.01-.2-2.95-.47-5.9-.85-8.83-.34-2.58-.76-5.14-1.31-7.69-.48-2.22-1.06-4.44-1.78-6.6-.63-1.89-1.38-3.76-2.27-5.55-.79-1.59-1.7-3.12-2.76-4.54-1.91-2.58-4.22-4.7-7.05-6.25-2.85-1.57-5.96-2.41-9.17-2.77-1.79-.2-3.61-.25-5.41-.19-2.01.07-3.99.26-5.97.55-1.07.16-2.14.34-3.21.54-.56.11-1.11.22-1.67.34-.61.13-1.22.27-1.83.43-2.41.62-4.74,1.42-7.02,2.42-4.6,2.01-8.8,4.73-12.6,7.99-4.01,3.44-7.53,7.42-10.59,11.7-3.31,4.63-6.12,9.64-8.49,14.81-2.56,5.57-4.63,11.4-6.29,17.3-1.77,6.28-3.09,12.71-4.01,19.16-.97,6.75-1.51,13.59-1.65,20.4-.02.88-.03,1.77-.04,2.65,0,.55,0,1.1-.01,1.64-.02,2.52-.04,5.03-.06,7.55-.5,62.47-.99,124.94-1.49,187.41,0,.63,0,1.26-.02,1.89v.03h0s-.04.01-.06.02c-.1.02-.2.05-.3.08-1.14.29-2.27.57-3.41.86-4.92,1.24-9.85,2.49-14.77,3.73-12.75,3.22-25.5,6.44-38.25,9.65-3.22.81-6.43,1.62-9.64,2.43-.23.06-.46.12-.69.17h-.04v-1.4c.03-6.29.06-12.58.09-18.87.34-72.26.67-144.52,1.01-216.79.26-56.48.53-112.97.79-169.45.09-18.87.18-37.74.26-56.61.02-5.31.05-10.62.07-15.93,0-1.4.01-2.8.02-4.2v-1.44h0c11.59-2.1,23.18-4.19,34.77-6.28,7.86-1.42,15.71-2.84,23.57-4.25,2.55-.46,5.09-.92,7.64-1.38l2.09-.38c.17-.03.35-.06.52-.09l.12-.02h.02c-.24,30.21-.48,60.41-.72,90.6-.16,20.13-.32,40.26-.48,60.4-.05,6.44-.1,12.88-.15,19.32-.01,1.71-.03,3.42-.04,5.14v1.47h0s.02-.07.03-.1c.08-.26.16-.53.24-.79,2.61-8.35,6.47-16.34,11.18-23.68,4.82-7.5,10.61-14.45,17.08-20.58,6.4-6.06,13.58-11.42,21.29-15.72,7.45-4.15,15.48-7.35,23.84-9.17.54-.12,1.08-.23,1.63-.34.78-.15,1.56-.3,2.34-.43,1.53-.26,3.06-.48,4.6-.67,2.96-.35,5.92-.55,8.9-.58,5.54-.06,11.06.49,16.46,1.78,10.29,2.46,19.37,7.43,26.94,14.84,3.9,3.82,7.25,8.13,10.09,12.79,3.12,5.1,5.61,10.56,7.59,16.19,2.22,6.32,3.81,12.88,4.9,19.48,1.24,7.48,1.86,15.08,2.02,22.65.05,2.17.06,4.35.03,6.52,0,.45-.01.9-.02,1.35-.03,1.79-.06,3.59-.09,5.38-.13,8.29-.26,16.58-.39,24.86-.44,27.86-.87,55.72-1.31,83.57-.66,42-1.32,84-1.98,126.01l.04.02Z"/>
  <path d="M722.4,435.82c-.06-23.14-.12-46.28-.17-69.42-.01-5.79-.03-11.58-.04-17.37,0-1.69,0-3.39-.01-5.08v-1.79h0c5.8-1.27,11.61-2.54,17.41-3.8,10.61-2.32,21.22-4.63,31.83-6.94,4.03-.88,8.05-1.76,12.08-2.64,1.17-.25,2.33-.51,3.5-.76.31-.07.61-.13.92-.2.07-.02.15-.03.23-.05.02,0,.03,0,.05-.01h0c-.02,25.26-.04,50.53-.06,75.79,0,8.57-.01,17.13-.02,25.7-.02,23.73-3.27,48.01-10.53,70.72-3.54,11.04-8.05,21.81-13.67,31.97-5.5,9.94-12.03,19.26-19.69,27.66-7.71,8.46-16.41,15.83-26.09,21.96-10.27,6.5-21.29,11.39-32.93,14.82-2.92.86-5.86,1.62-8.83,2.3-2.91.66-5.82,1.23-8.77,1.7-5.41.86-10.88,1.38-16.36,1.43-4.96.05-9.92-.28-14.82-1.07-4.54-.73-8.99-1.85-13.31-3.42-8.26-2.99-15.66-7.44-22.2-13.29-6.68-5.98-12.11-13.11-16.52-20.86-2.35-4.14-4.41-8.46-6.21-12.87-1.9-4.66-3.52-9.44-4.9-14.27-1.46-5.12-2.64-10.28-3.61-15.51-1.02-5.5-1.8-11.02-2.37-16.58-.6-5.82-.98-11.64-1.17-17.48-.07-2.1-.11-4.21-.13-6.31,0-.75-.02-1.51-.02-2.26-.11-10.94-.22-21.87-.33-32.81-.8-79.03-1.61-158.06-2.41-237.1-.16-15.24-.31-30.47-.47-45.71-.04-3.89-.08-7.79-.12-11.68,0-.78-.02-1.57-.02-2.35v-.23h0s.06,0,.1-.02c5.68-1.05,11.36-2.11,17.04-3.16,18.1-3.36,36.21-6.72,54.31-10.08.71-.13,1.41-.26,2.12-.39.07,0,.14-.03.21-.04h.06v.39c.02,2.79.04,5.58.06,8.38.08,12.45.16,24.9.25,37.35.09,13.37.18,26.73.26,40.1.03,3.97.05,7.94.08,11.91,0,.78,0,1.55.02,2.33v.13h.02s.06,0,.09-.02c.36-.07.72-.14,1.09-.22,31.78-6.36,63.56-12.71,95.34-19.07,15.55-3.11,31.1-6.22,46.65-9.33,2.66-.53,5.32-1.06,7.97-1.6h.02v3.06c-.01,15.69-.02,31.37-.03,47.05,0,5.57,0,11.13-.01,16.7v.79h0c-.69.14-1.39.29-2.08.44-4.66.98-9.32,1.96-13.98,2.93-43.63,9.16-87.25,18.32-130.88,27.48-1.24.26-2.48.52-3.71.78h0v.67c0,.76.01,1.51.02,2.27.05,7.36.1,14.72.15,22.08.16,24.82.33,49.63.49,74.45.1,15.64.21,31.29.31,46.93,0,1.13.02,2.26.02,3.39.02,2.61.07,5.22.18,7.83.12,3.09.32,6.18.6,9.26.26,2.84.59,5.66,1.03,8.48.4,2.58.88,5.14,1.47,7.68.54,2.31,1.17,4.59,1.93,6.85.69,2.05,1.47,4.05,2.39,6,.84,1.77,1.79,3.5,2.87,5.14,1.94,2.93,4.31,5.55,7.21,7.59,2.8,1.97,5.9,3.24,9.25,3.89,1.79.35,3.6.5,5.41.51,1.99,0,3.99-.17,5.96-.47,2.12-.33,4.32-.84,6.38-1.44,2.05-.6,4.03-1.33,5.98-2.2,7.73-3.45,13.92-8.77,18.77-15.64,2.58-3.66,4.69-7.62,6.41-11.73,1.92-4.58,3.39-9.37,4.51-14.2,1.26-5.44,2.11-11.01,2.65-16.56.61-6.24.86-12.55.84-18.82l-.07-.04Z"/>
  <path d="M1635.51,602.79c-46.55,13.75-93.1,27.49-139.66,41.24-.13.04-.27.08-.4.12h0v2.01c0,.68.02,1.36.03,2.05.06,2.63.18,5.26.37,7.88.34,4.77.91,9.56,1.79,14.26.77,4.09,1.79,8.19,3.14,12.14,1.17,3.41,2.62,6.77,4.42,9.9,1.56,2.72,3.42,5.29,5.62,7.54,1.98,2.02,4.23,3.75,6.75,5.06,2.46,1.28,5.07,2.1,7.81,2.47,2.94.4,5.89.28,8.79-.23,1.59-.28,3.14-.66,4.67-1.14,1.07-.33,2.12-.71,3.16-1.12,2.12-.85,4.17-1.87,6.14-3.02,4.13-2.41,7.91-5.43,11.26-8.82,3.54-3.59,6.64-7.64,9.21-11.97,2.7-4.54,4.83-9.4,6.35-14.46.31-1.03.59-2.07.85-3.11.13-.53.25-1.05.37-1.58.06-.27.12-.53.17-.8v-.07h.02l1.75-.53c3.38-1.02,6.76-2.04,10.15-3.07,10.02-3.03,20.03-6.05,30.05-9.08,3.48-1.05,6.96-2.1,10.45-3.16.68-.21,1.37-.41,2.05-.62.02,0,.04-.01.06-.02h.02v.04s-.02.05-.02.07l-.03.15c-.36,1.57-.72,3.13-1.1,4.7-.75,3.07-1.55,6.13-2.41,9.17-3.23,11.47-7.24,22.76-12.17,33.61-4.48,9.88-9.75,19.45-15.89,28.4-3.45,5.02-7.17,9.85-11.2,14.43-3.83,4.35-7.93,8.47-12.3,12.28-8.28,7.21-17.47,13.25-27.56,17.67-2.44,1.07-4.92,2.03-7.44,2.9-.63.22-1.26.42-1.89.63-.96.31-1.92.6-2.89.89-1.91.56-3.83,1.09-5.76,1.56-3.64.89-7.29,1.61-11,2.12-3.41.47-6.86.74-10.3.78-6.25.07-12.48-.66-18.49-2.48-5.67-1.72-10.89-4.35-15.64-7.91-3.3-2.47-6.27-5.31-8.94-8.44-2.89-3.39-5.41-7.08-7.6-10.95-2.45-4.31-4.51-8.84-6.26-13.47-1.98-5.21-3.58-10.58-4.91-15.99-1.49-6.09-2.65-12.31-3.54-18.51-1.01-6.97-1.71-14.02-2.17-21.04-.52-7.83-.77-15.72-.8-23.57-.02-4.25.02-8.49.12-12.73.05-2.15.11-4.3.19-6.46.07-1.88.15-3.77.24-5.65.68-13.49,2.12-27,4.43-40.32,2.15-12.38,5.07-24.68,8.9-36.66,3.54-11.07,7.88-21.93,13.14-32.3,4.87-9.58,10.55-18.78,17.14-27.28,8.41-10.84,18.27-20.49,29.69-28.21,5.47-3.7,11.22-6.91,17.26-9.58,3.01-1.33,6.07-2.52,9.19-3.58,3.11-1.05,6.32-1.97,9.51-2.73,3.05-.72,6.11-1.3,9.21-1.71,2.89-.38,5.78-.6,8.69-.64,5.34-.06,10.64.51,15.81,1.94,10.23,2.82,18.57,8.59,25.34,16.6,2.65,3.13,4.99,6.52,7.06,10.06,2.29,3.91,4.26,8.03,5.97,12.22,1.91,4.68,3.52,9.5,4.89,14.36,1.53,5.43,2.78,10.96,3.81,16.5,1.15,6.16,2.03,12.4,2.72,18.63.76,6.91,1.28,13.82,1.63,20.76.38,7.63.54,15.25.54,22.89,0,8.34-.21,16.67-.56,25.01v-.03ZM1498.98,592.17c21.19-6.08,42.37-12.16,63.56-18.24,5.79-1.66,11.58-3.32,17.36-4.98,1-.29,2.01-.58,3.01-.86h.03v-.23c.02-.58.02-1.16.03-1.74.01-1.13,0-2.26,0-3.39-.03-2.15-.11-4.3-.25-6.44-.21-3.26-.55-6.5-1.06-9.73-.46-2.86-1.05-5.7-1.82-8.49-.68-2.47-1.51-4.92-2.51-7.28-.89-2.1-1.92-4.15-3.13-6.09-1.59-2.56-3.47-4.94-5.71-6.97-2.01-1.82-4.25-3.32-6.73-4.43-4.97-2.21-10.31-2.55-15.57-1.54-1.17.23-2.37.52-3.5.87-1.2.37-2.38.81-3.53,1.31-2.42,1.05-4.71,2.36-6.86,3.87-2.33,1.63-4.5,3.48-6.51,5.47-2.19,2.17-4.21,4.53-6.06,6.99-3.11,4.14-5.79,8.64-8.09,13.27-2.59,5.22-4.72,10.69-6.47,16.23-1.59,5.05-2.86,10.21-3.86,15.4-1.08,5.62-1.85,11.32-2.33,17.02v-.02Z"/>
  <path d="M1416.73,799.49c-12.67,4.01-25.35,8.03-38.02,12.04-5.56,1.76-11.12,3.52-16.68,5.28l-.44.14h-.03v-.32c.05-1.74.1-3.49.15-5.23.25-8.69.51-17.37.77-26.06,1.48-50.51,2.96-101.02,4.45-151.53.06-1.94.11-3.89.17-5.84.02-.51.03-1.01.04-1.52.03-1.46.05-2.92.04-4.38-.03-5.34-.36-10.74-1.1-16.03-.33-2.37-.75-4.72-1.27-7.06-.48-2.15-1.05-4.27-1.73-6.36-.62-1.92-1.33-3.79-2.16-5.63-.76-1.68-1.6-3.29-2.58-4.85-1.56-2.49-3.45-4.82-5.73-6.71-2.06-1.7-4.37-2.98-6.95-3.71-2.65-.75-5.35-.85-8.06-.45-1.51.22-3.01.6-4.45,1.1-1.56.53-3.05,1.19-4.51,1.98-3.11,1.67-5.92,3.85-8.45,6.29-2.83,2.73-5.33,5.83-7.52,9.07-2.45,3.62-4.58,7.49-6.41,11.46-2.01,4.34-3.69,8.86-5.09,13.43-1.5,4.91-2.69,9.94-3.59,15-.94,5.33-1.57,10.74-1.89,16.15-.08,1.39-.14,2.78-.19,4.17-.01.38-.02.77-.03,1.15-.04,1.69-.09,3.38-.13,5.07-.2,7.78-.4,15.57-.6,23.35-1.24,48.05-2.48,96.09-3.72,144.14-.13,5.09-.26,10.18-.4,15.27,0,.15,0,.29-.01.44v.08h0c-.1.03-.21.06-.31.1-.63.2-1.26.4-1.89.6-6.48,2.05-12.95,4.1-19.43,6.15-8.33,2.64-16.66,5.27-24.98,7.91l-8.87,2.81c-.84.27-1.68.53-2.51.8-.22.07-.43.14-.65.21l-.16.05s-.02,0-.03.01h0c.93-40.75,1.87-81.5,2.8-122.25.48-21,.96-41.99,1.44-62.99.04-1.93.09-3.86.13-5.79,0-.28.01-.55.02-.83.04-1.85.07-3.7.09-5.56.03-3.38,0-6.75-.09-10.13-.09-2.96-.23-5.92-.46-8.87-.21-2.69-.5-5.37-.91-8.05-.34-2.27-.78-4.55-1.35-6.77-.48-1.88-1.07-3.76-1.82-5.57-.63-1.54-1.39-3.03-2.3-4.43-3.48-5.28-8.3-7.47-14.44-7.59-1.67-.03-3.36.09-5.02.31-1.88.24-3.77.62-5.62,1.05-.98.23-2.06.51-3.03.78-.94.26-1.86.55-2.78.88-1.81.63-3.56,1.38-5.26,2.24-7.08,3.6-12.63,8.95-16.94,15.53-2.4,3.67-4.34,7.61-5.93,11.68-1.81,4.62-3.17,9.43-4.2,14.27-1.19,5.54-1.96,11.2-2.45,16.83-.27,3.12-.45,6.24-.55,9.37-.04,1.07-.06,2.14-.09,3.22l-.03,1.5c-.94,48.71-1.88,97.42-2.82,146.12-.28,14.49-.56,28.98-.84,43.47-.02,1.31-.05,2.62-.08,3.92,0,.2,0,.41-.01.61h-.02s-.06.02-.09.03c-1.07.34-2.14.68-3.21,1.02-12.32,3.9-24.65,7.81-36.97,11.71-5.61,1.78-11.22,3.55-16.83,5.33-1.29.41-2.59.82-3.88,1.23-.1.03-.2.06-.3.09h-.03v-.23l.08-4.76c.96-58.86,1.91-117.73,2.87-176.59.72-44.44,1.45-88.89,2.17-133.33.06-3.77.12-7.54.18-11.3v-.73s.01-.03.01-.04h.04c.18-.05.36-.09.54-.14,2.47-.66,4.95-1.32,7.42-1.98,16.5-4.4,33-8.8,49.5-13.19.26-.07.52-.14.79-.21.06-.02.11-.03.17-.05h.03c0,.42-.02.83-.02,1.24-.05,2.44-.09,4.89-.14,7.33-.15,7.88-.3,15.76-.45,23.64-.1,5.23-.2,10.46-.3,15.69v.21h0v-.02s.03-.06.04-.1c.05-.13.09-.26.13-.39.7-2.01,1.42-4,2.17-5.99,1.41-3.73,2.91-7.42,4.54-11.06,1.49-3.35,3.09-6.65,4.8-9.89,1.59-2.99,3.27-5.92,5.08-8.79,3.67-5.81,7.83-11.27,12.64-16.21,4.31-4.43,9.02-8.3,14.24-11.62,5.04-3.21,10.36-5.77,15.96-7.83,2.84-1.05,5.73-1.95,8.65-2.74,2.88-.78,5.81-1.46,8.75-1.96,2.61-.45,5.25-.76,7.89-.88,2.38-.1,4.76-.05,7.12.23,4.39.51,8.49,1.76,12.37,3.89,4.06,2.22,7.53,5.22,10.61,8.61,1.76,1.94,3.39,4.01,4.91,6.14,1.71,2.39,3.29,4.86,4.79,7.39,1.68,2.84,3.26,5.73,4.77,8.66.2.39.4.78.6,1.17.1.2.2.4.3.59.05.1.1.2.15.3.03.05.05.1.08.15h0v-.02s0-.03.02-.05c0-.03.02-.06.03-.09.32-.94.65-1.88.99-2.82.66-1.83,1.34-3.64,2.05-5.44,2.62-6.63,5.67-13.13,9.26-19.3,3.18-5.46,6.8-10.67,10.95-15.46,3.79-4.37,7.98-8.33,12.64-11.78,4.46-3.31,9.23-6.07,14.33-8.3,2.55-1.11,5.14-2.07,7.8-2.9.67-.21,1.34-.41,2.02-.6.82-.23,1.64-.45,2.47-.66,2.11-.52,4.22-.94,6.37-1.24,3.98-.56,8-.72,12.01-.38,3.74.32,7.41,1.06,10.96,2.27,7.08,2.4,13.24,6.47,18.45,11.77,2.7,2.75,5.1,5.78,7.22,8.99,2.27,3.45,4.22,7.11,5.88,10.88,1.8,4.08,3.27,8.31,4.46,12.6,1.29,4.65,2.27,9.4,2.97,14.17.76,5.16,1.21,10.38,1.4,15.59.1,2.76.12,5.52.08,8.28-.02.98-.04,1.96-.07,2.94,0,.2-.01.41-.02.61l-.88,27.52c-2,62.41-4,124.81-6,187.22l-.05.06Z"/>
  <path d="M950.69,955.71c-5.7,1.81-11.51,3.3-17.4,4.34-5.39.96-10.84,1.55-16.32,1.67-5.08.12-10.16-.17-15.19-.92-4.77-.72-9.46-1.86-14.02-3.45-9.01-3.15-17.12-7.94-24.31-14.19-3.71-3.22-7.1-6.78-10.19-10.59-3.27-4.03-6.2-8.33-8.81-12.81-4.31-7.39-7.78-15.28-10.58-23.35-1.53-4.42-2.86-8.88-4.02-13.41-1.23-4.8-2.27-9.63-3.15-14.51-1.9-10.61-3.03-21.42-3.58-32.18-.3-5.86-.42-11.73-.4-17.6.03-6.06.21-12.11.57-18.16.64-10.87,1.82-21.72,3.59-32.47,1.69-10.3,3.93-20.53,6.76-30.58,2.7-9.63,5.95-19.11,9.78-28.35,3.67-8.85,7.87-17.48,12.64-25.78,5.33-9.27,11.36-18.12,18.14-26.4,6.51-7.95,13.68-15.33,21.52-21.98,15.32-13,32.76-22.84,51.99-28.85,2.95-.92,5.92-1.75,8.92-2.48,2.87-.7,5.76-1.31,8.68-1.81,5.44-.94,10.95-1.51,16.48-1.61,5.11-.1,10.22.21,15.27.98,4.78.73,9.47,1.88,14.03,3.48,8.96,3.14,17.03,7.9,24.19,14.11,3.67,3.18,7.02,6.69,10.08,10.46,3.23,3.97,6.12,8.2,8.7,12.61,4.32,7.38,7.78,15.27,10.55,23.33,1.52,4.42,2.83,8.88,3.98,13.41,1.22,4.81,2.24,9.64,3.09,14.53.91,5.18,1.63,10.38,2.19,15.61.59,5.55,1.01,11.1,1.27,16.67.28,5.9.38,11.79.33,17.69,0,.76-.02,1.52-.03,2.28s-.02,1.52-.04,2.28c-.03,1.51-.07,3.02-.13,4.53-.1,2.99-.24,5.97-.42,8.96-.66,10.92-1.87,21.82-3.66,32.62-1.71,10.3-3.95,20.52-6.78,30.57-2.7,9.6-5.94,19.05-9.75,28.27-3.65,8.82-7.83,17.42-12.58,25.71-5.26,9.18-11.22,17.97-17.91,26.18-6.45,7.93-13.55,15.29-21.32,21.95-15.36,13.16-32.85,23.12-52.17,29.27v-.03ZM951.34,882.79c10.51-3.23,19.88-8.47,27.92-16.03,4.04-3.79,7.58-8.02,10.69-12.59,3.35-4.92,6.17-10.19,8.54-15.64,1.94-4.46,3.59-9.06,4.99-13.72,1.53-5.08,2.77-10.25,3.79-15.45,1.11-5.69,1.95-11.44,2.58-17.2.69-6.31,1.13-12.62,1.38-18.96.13-3.34.21-6.68.24-10.03.03-3.28,0-6.56-.07-9.84-.14-5.95-.46-11.94-1.06-17.87-.52-5.17-1.26-10.37-2.3-15.46-.9-4.4-2.05-8.81-3.53-13.06-1.05-2.99-2.28-5.94-3.75-8.76-1.31-2.52-2.81-4.95-4.55-7.21-3.12-4.06-6.91-7.42-11.52-9.76-4.63-2.35-9.62-3.41-14.76-3.55-2.88-.08-5.76.13-8.6.55-3.17.47-6.34,1.2-9.41,2.1-10.49,3.08-19.85,8.22-27.89,15.69-4.07,3.78-7.63,8.01-10.76,12.58-3.39,4.95-6.22,10.26-8.6,15.76-1.93,4.47-3.57,9.07-4.96,13.73-1.52,5.08-2.75,10.27-3.75,15.47-1.09,5.69-1.92,11.45-2.53,17.21-.67,6.3-1.08,12.6-1.31,18.93-.06,1.65-.1,3.29-.13,4.94-.03,1.68-.05,3.36-.06,5.04-.01,3.28.02,6.56.11,9.84.16,5.95.51,11.95,1.13,17.87.54,5.17,1.29,10.37,2.34,15.47.91,4.41,2.05,8.81,3.54,13.07,8.9,25.56,26.22,34.84,52.28,26.84v.04Z"/>
  <path d="M799.42,758.81c-18.76,5.29-37.52,10.58-56.27,15.87-3.2.9-6.4,1.8-9.6,2.71-.22.06-.43.12-.65.18h-.03v-.11s-.01-.1-.02-.14c-.01-.09-.02-.19-.03-.29l-.07-.57c-.09-.74-.2-1.49-.3-2.23-.4-2.72-.91-5.44-1.57-8.11-.58-2.32-1.28-4.63-2.17-6.86-.77-1.95-1.69-3.86-2.8-5.65-1.96-3.17-4.44-5.85-7.66-7.81-1.56-.95-3.21-1.68-4.94-2.24-1.87-.59-3.79-.96-5.74-1.17-2.18-.23-4.39-.25-6.58-.14-2.49.13-5,.43-7.46.85-2.81.47-5.62,1.1-8.38,1.8-1.38.36-2.76.73-4.13,1.13-1.22.35-2.43.72-3.63,1.11-4.41,1.43-8.81,3.14-12.97,5.22-3.63,1.82-7.15,3.96-10.33,6.51-2.85,2.29-5.41,4.9-7.51,7.91-2.02,2.88-3.53,6.01-4.52,9.39-.51,1.74-.86,3.48-1.09,5.28-.24,1.89-.32,3.77-.28,5.67.04,1.67.18,3.34.47,4.99.25,1.46.63,2.9,1.15,4.3.96,2.57,2.39,4.82,4.34,6.75,2.03,2.02,4.46,3.52,7.04,4.69,1.47.67,2.98,1.23,4.52,1.72,1.71.54,3.44.99,5.18,1.38,1.94.43,3.88.79,5.84,1.1,2.16.34,4.32.62,6.49.87,2.38.27,4.76.5,7.14.71.63.05,1.26.11,1.88.16.34.03.67.06,1,.08.34.03.67.06,1,.08,1.33.11,2.67.21,4,.31,5.22.38,10.45.7,15.68.98,5,.27,10.01.52,15.01.78,4.72.25,9.43.51,14.14.84,4.35.31,8.75.68,13.08,1.17,3.94.45,7.92,1.01,11.82,1.76.91.18,1.83.36,2.73.56.22.05.45.1.67.15.14.03.29.07.43.1.15.04.3.07.45.11.6.15,1.19.31,1.79.47,2.3.64,4.56,1.38,6.78,2.27,8.52,3.4,15.62,8.52,21.04,16.05,2.86,3.98,5.05,8.34,6.73,12.91.95,2.58,1.73,5.19,2.38,7.85.72,2.93,1.28,5.87,1.71,8.85.38,2.57.66,5.14.87,7.72.23,2.8.37,5.6.44,8.4.04,1.49.06,2.97.06,4.46,0,2.31-.04,4.62-.12,6.93-.17,4.72-.53,9.41-1.08,14.1-2.11,17.8-7.05,34.98-15.35,50.95-8.2,15.78-19.22,29.5-32.64,41.11-7.08,6.13-14.7,11.56-22.73,16.36-8.63,5.15-17.68,9.54-27.01,13.26-5.48,2.19-11.03,4.13-16.66,5.87-5.83,1.8-11.75,3.37-17.72,4.64-5.46,1.16-10.99,2.07-16.55,2.66-5.09.54-10.22.8-15.35.73-4.72-.07-9.44-.43-14.11-1.15-4.34-.67-8.64-1.64-12.83-2.97-7.84-2.48-15.14-6.15-21.69-11.16-6.44-4.93-11.81-10.9-16.17-17.71-2.28-3.55-4.24-7.28-5.93-11.15-1.79-4.08-3.26-8.29-4.45-12.58-1.28-4.58-2.24-9.25-2.95-13.95-.75-5.05-1.2-10.15-1.41-15.24-.03-.66-.05-1.33-.07-1.99,0-.02-.03-.05,0-.06h.01s.1-.03.16-.05c.25-.08.51-.15.76-.23,1.05-.32,2.1-.63,3.15-.95,20.55-6.18,41.09-12.36,61.64-18.54,2.69-.81,5.39-1.62,8.08-2.43.19-.06.37-.11.56-.17h.03v.73c.01.64.03,1.27.06,1.91.11,2.4.34,4.78.74,7.15.36,2.15.87,4.28,1.54,6.36.62,1.91,1.38,3.78,2.31,5.56,1.72,3.3,3.96,6.24,6.8,8.68,2.82,2.41,6.03,4.17,9.53,5.36,3.88,1.32,7.96,1.9,12.03,1.98,2.3.05,4.59-.06,6.88-.29,2.5-.25,4.96-.65,7.42-1.16,2.68-.56,5.32-1.24,7.93-2.03,2.05-.62,4.08-1.3,6.08-2.04,7.54-2.79,14.97-6.55,21.42-11.42,6.04-4.56,11.32-10.17,14.88-16.97,1.87-3.57,3.2-7.35,3.95-11.31.4-2.08.62-4.15.71-6.27.04-1.06.04-2.11,0-3.17-.03-.96-.1-1.92-.21-2.88-.19-1.72-.52-3.42-1.02-5.07-.45-1.47-1.03-2.88-1.78-4.22-1.4-2.5-3.26-4.54-5.59-6.2-2.38-1.7-5.09-2.89-7.86-3.74-3.11-.96-6.42-1.54-9.64-1.91-3.59-.42-7.31-.61-10.91-.71-.96-.03-1.91-.05-2.87-.06-.48,0-.96-.02-1.45-.02h-.73c-.34,0-.69,0-1.03-.01-3.7-.05-7.39-.12-11.09-.21-3.43-.08-6.86-.18-10.3-.31-3.18-.12-6.37-.26-9.55-.43-2.95-.16-5.9-.35-8.85-.58-2.74-.21-5.47-.46-8.2-.74-4.89-.52-9.81-1.18-14.65-2.07-4.26-.79-8.5-1.76-12.65-3-3.78-1.13-7.46-2.47-11.06-4.1-.86-.39-1.72-.8-2.57-1.22-1.04-.51-2.06-1.05-3.06-1.62-2.07-1.16-4.07-2.43-6-3.81-7.37-5.29-13.16-11.91-17.44-19.89-2.19-4.09-3.92-8.38-5.26-12.81-1.43-4.7-2.43-9.54-3.1-14.4-.73-5.24-1.08-10.57-1.18-15.85-.09-4.82.03-9.62.38-14.42.37-5.13,1-10.21,1.91-15.28,3.69-20.45,11.84-39.29,24.87-55.62,6.92-8.67,14.93-16.27,23.8-22.9,4.79-3.58,9.79-6.84,14.97-9.83,5.53-3.19,11.24-6.04,17.09-8.6,10.44-4.57,21.29-8.2,32.3-11.07,5.24-1.37,10.51-2.56,15.85-3.52,4.8-.87,9.66-1.55,14.52-1.97,4.39-.38,8.82-.55,13.23-.45,4.01.1,8.01.43,11.97,1.05,3.64.58,7.24,1.4,10.75,2.53,3.3,1.06,6.5,2.38,9.57,3.98,5.98,3.13,11.21,7.21,15.73,12.24,4.76,5.29,8.46,11.35,11.38,17.8,1.61,3.55,2.97,7.22,4.14,10.94,1.26,4.03,2.29,8.14,3.14,12.27.92,4.5,1.63,9.03,2.17,13.59.59,4.95.98,9.91,1.23,14.89h.07Z"/>
</svg>